# File created by Blade
# Date/Time:  Tue Jan 27 17:01:45 2015
#---------------------------------------------------------
:version 1.10
:name HOM
:units
  mass 1.0
  length 1.000000
  angle deg
:documentation
     Acclaim Skeleton File
:root
   axis xyz
   order TX TY TZ RX RY RZ
   position 0.000000 0.000000 0.000000
   orientation 0 0 0
:bonedata
   begin
      id 1
      name Spine_dum
      direction 0.000000 1.000000 0.000000
      length 7.539951
      axis 0.0 0.0 0.0 xyz
   end
   begin
      id 2
      name LeftUpLeg_dum
      direction 1.000000 0.000000 0.000000
      length 3.345476
      axis 0.0 0.0 0.0 xyz
   end
   begin
      id 3
      name RightUpLeg_dum
      direction -1.000000 0.000000 0.000000
      length 3.345476
      axis 0.0 0.0 0.0 xyz
   end
   begin
      id 4
      name Spine
      direction 0.000000 1.000000 0.000000
      length 0.000000
      axis 0.0 0.0 0.0 xyz
      dof rx ry rz
   end
   begin
      id 5
      name Spine_dum1
      direction 0.000000 1.000000 0.000000
      length 15.093809
      axis 0.0 0.0 0.0 xyz
   end
   begin
      id 6
      name Spine_dum2
      direction 0.000000 1.000000 0.000000
      length 9.738928
      axis 0.0 0.0 0.0 xyz
   end
   begin
      id 7
      name Spine_dum3
      direction 0.000000 1.000000 0.000000
      length 9.738928
      axis 0.0 0.0 0.0 xyz
   end
   begin
      id 8
      name Head
      direction 0.000000 1.000000 0.000000
      length 4.527550
      axis 0.0 0.0 0.0 xyz
      dof rx ry rz
   end
   begin
      id 9
      name LeftShoulder
      direction 1.000000 0.000000 0.000000
      length 7.084015
      axis 0.0 0.0 -90.0 xyz
      dof rx ry rz
   end
   begin
      id 10
      name LeftArm
      direction 1.000000 0.000000 0.000000
      length 10.259319
      axis 0.0 0.0 -90.0 xyz
      dof rx ry rz
   end
   begin
      id 11
      name LeftForeArm
      direction 1.000000 0.000000 0.000000
      length 9.896984
      axis 0.0 0.0 -90.0 xyz
      dof ry rz rx
   end
   begin
      id 12
      name LeftHand
      direction 0.000000 0.000000 0.000000
      length 0.000000
      axis 0.0 0.0 -90.0 xyz
      dof rx ry rz
   end
   begin
      id 13
      name LeftHand_dum1
      direction 0.000000 0.000000 0.000000
      length 0.000000
      axis 0.0 0.0 -90.0 xyz
   end
   begin
      id 14
      name LeftHand_dum2
      direction 1.000000 0.000000 0.000000
      length 3.937000
      axis 0.0 0.0 -90.0 xyz
   end
   begin
      id 15
      name LeftHandThumb1
      direction 0.000000 0.000000 1.000000
      length 3.937000
      axis 0.0 0.0 -90.0 xyz
      dof rx rz ry
   end
   begin
      id 16
      name RightShoulder
      direction -1.000000 0.000000 0.000000
      length 7.084015
      axis 0.0 0.0 90.0 xyz
      dof rx ry rz
   end
   begin
      id 17
      name RightArm
      direction -1.000000 0.000000 0.000000
      length 10.259319
      axis 0.0 0.0 90.0 xyz
      dof rx ry rz
   end
   begin
      id 18
      name RightForeArm
      direction -1.000000 0.000000 0.000000
      length 9.896984
      axis 0.0 0.0 90.0 xyz
      dof ry rz rx
   end
   begin
      id 19
      name RightHand
      direction 0.000000 0.000000 0.000000
      length 0.000000
      axis 0.0 0.0 90.0 xyz
      dof rx ry rz
   end
   begin
      id 20
      name RightHand_dum1
      direction 0.000000 0.000000 0.000000
      length 0.000000
      axis 0.0 0.0 90.0 xyz
   end
   begin
      id 21
      name RightHand_dum2
      direction -1.000000 0.000000 0.000000
      length 3.937000
      axis 0.0 0.0 90.0 xyz
   end
   begin
      id 22
      name RightHandThumb1
      direction 0.000000 0.000000 1.000000
      length 3.937000
      axis 0.0 0.0 90.0 xyz
      dof rx rz ry
   end
   begin
      id 23
      name LeftUpLeg
      direction 0.000000 -1.000000 0.000000
      length 19.114733
      axis 0.0 0.0 0.0 xyz
      dof rx ry rz
   end
   begin
      id 24
      name LeftLeg
      direction 0.000000 -1.000000 0.000000
      length 16.045604
      axis 0.0 0.0 0.0 xyz
      dof rx ry rz
   end
   begin
      id 25
      name LeftFoot
      direction 0.000000 -0.258819 0.965926
      length 5.543155
      axis 15.0 0.0 0.0 xyz
      dof rx ry rz
   end
   begin
      id 26
      name LeftToeBase
      direction 0.000000 0.000000 1.000000
      length 2.952750
      axis 0.0 0.0 0.0 xyz
      dof rx ry rz
   end
   begin
      id 27
      name RightUpLeg
      direction 0.000000 -1.000000 0.000000
      length 19.114733
      axis 0.0 0.0 0.0 xyz
      dof rx ry rz
   end
   begin
      id 28
      name RightLeg
      direction 0.000000 -1.000000 0.000000
      length 16.045604
      axis 0.0 0.0 0.0 xyz
      dof rx ry rz
   end
   begin
      id 29
      name RightFoot
      direction 0.000000 -0.258819 0.965926
      length 5.543155
      axis 15.0 0.0 0.0 xyz
      dof rx ry rz
   end
   begin
      id 30
      name RightToeBase
      direction 0.000000 0.000000 1.000000
      length 2.952750
      axis 0.0 0.0 0.0 xyz
      dof rx ry rz
   end
:hierarchy
   begin
      root Spine_dum LeftUpLeg_dum RightUpLeg_dum
      Spine_dum Spine
      LeftUpLeg_dum LeftUpLeg
      RightUpLeg_dum RightUpLeg
      Spine Spine_dum1 Spine_dum2 Spine_dum3
      Spine_dum1 Head
      Spine_dum2 LeftShoulder
      Spine_dum3 RightShoulder
      LeftShoulder LeftArm
      LeftArm LeftForeArm
      LeftForeArm LeftHand
      LeftHand LeftHand_dum1 LeftHand_dum2
      LeftHand_dum1 LeftHandThumb1
      RightShoulder RightArm
      RightArm RightForeArm
      RightForeArm RightHand
      RightHand RightHand_dum1 RightHand_dum2
      RightHand_dum1 RightHandThumb1
      LeftUpLeg LeftLeg
      LeftLeg LeftFoot
      LeftFoot LeftToeBase
      RightUpLeg RightLeg
      RightLeg RightFoot
      RightFoot RightToeBase
   end

# File created by Blade
# Date/Time:  Tue Jan 27 17:01:38 2015
# Frame Rate: 120.000 fps
#------------------------------------------------------
:FULLY-SPECIFIED
:DEGREES
242
root -1.129167 36.795981 5.777088 5.104316 8.305333 0.229097
Spine -4.031564 9.636081 -4.313279
Head 0.061228 -1.163788 2.321767
LeftShoulder -4.971573 -2.520474 -2.274286
LeftArm -5.040160 -9.199311 -67.559214
LeftForeArm -70.657598 0.000000 81.995851
LeftHand 4.503801 0.000000 -20.482938
LeftHandThumb1 -26.253704 0.000000 33.147579
RightShoulder -3.314377 -24.290626 -0.942337
RightArm 26.885032 -37.062513 50.730089
RightForeArm -147.634372 -0.000000 38.778351
RightHand -0.307072 -0.000000 -3.428501
RightHandThumb1 -24.326973 -0.000000 -32.862282
LeftUpLeg -3.099014 7.759151 5.135999
LeftLeg 7.536743 -0.000000 -0.000000
LeftFoot -15.604833 0.532737 -20.878442
LeftToeBase 14.948255 -0.000000 -0.000000
RightUpLeg -2.857121 -12.152983 -1.448854
RightLeg 11.063537 -0.000000 -0.000000
RightFoot -19.399116 -7.799677 16.004260
RightToeBase 10.894066 -0.000000 -0.000000
243
root -1.132589 36.794587 5.780940 5.077327 8.391372 0.243894
Spine -4.012195 9.742983 -4.335647
Head 0.065591 -1.291620 2.231135
LeftShoulder -4.954035 -2.537625 -2.251725
LeftArm -5.226121 -9.670122 -67.392638
LeftForeArm -70.851336 0.000000 82.024622
LeftHand 4.575333 -0.000000 -20.148424
LeftHandThumb1 -26.253704 0.000000 33.147579
RightShoulder -3.323056 -24.270230 -0.943425
RightArm 26.841784 -36.950363 50.760757
RightForeArm -147.632093 -0.000000 38.765980
RightHand -0.359162 -0.000000 -3.331800
RightHandThumb1 -24.326973 -0.000000 -32.862282
LeftUpLeg -3.095375 7.728490 5.136883
LeftLeg 7.568388 -0.000000 -0.000000
LeftFoot -15.596489 0.486797 -20.860754
LeftToeBase 14.932058 -0.000000 -0.000000
RightUpLeg -2.813980 -12.172164 -1.459102
RightLeg 11.066992 -0.000000 -0.000000
RightFoot -19.434810 -7.789711 16.013895
RightToeBase 10.967218 -0.000000 -0.000000
244
root -1.137111 36.793112 5.786750 4.992820 8.500324 0.268509
Spine -3.901647 9.810602 -4.358903
Head 0.048636 -1.374653 2.198216
LeftShoulder -4.957964 -2.575722 -2.214586
LeftArm -5.384567 -10.037100 -67.226078
LeftForeArm -70.981460 -0.000000 82.042231
LeftHand 4.592576 -0.000000 -19.848812
LeftHandThumb1 -26.253704 0.000000 33.147579
RightShoulder -3.292714 -24.236910 -0.961150
RightArm 26.790348 -36.812352 50.824494
RightForeArm -147.745952 -0.000000 38.754409
RightHand -0.399670 -0.000000 -3.185461
RightHandThumb1 -24.326973 -0.000000 -32.862282
LeftUpLeg -3.029286 7.663609 5.138494
LeftLeg 7.589775 -0.000000 -0.000000
LeftFoot -15.579484 0.463131 -20.818262
LeftToeBase 14.904457 -0.000000 -0.000000
RightUpLeg -2.699662 -12.184401 -1.489354
RightLeg 11.067391 -0.000000 -0.000000
RightFoot -19.486762 -7.833501 16.059994
RightToeBase 10.962712 -0.000000 -0.000000
245
root -1.141553 36.792201 5.789940 4.957065 8.608264 0.274814
Spine -3.859467 9.904709 -4.368048
Head 0.053142 -1.470508 2.167440
LeftShoulder -4.919381 -2.587083 -2.168040
LeftArm -5.533533 -10.339898 -67.111630
LeftForeArm -71.035138 0.000000 82.051666
LeftHand 4.438167 -0.000000 -19.671309
LeftHandThumb1 -26.253704 0.000000 33.147579
RightShoulder -3.285337 -24.197332 -0.953757
RightArm 26.701028 -36.689581 50.875303
RightForeArm -147.613180 0.000000 38.747246
RightHand -0.466176 -0.000000 -3.139752
RightHandThumb1 -24.326973 -0.000000 -32.862282
LeftUpLeg -3.026418 7.621420 5.149577
LeftLeg 7.626474 -0.000000 -0.000000
LeftFoot -15.568821 0.412059 -20.806605
LeftToeBase 14.882022 -0.000000 -0.000000
RightUpLeg -2.644800 -12.180338 -1.489737
RightLeg 11.072571 -0.000000 -0.000000
RightFoot -19.526583 -7.952970 16.096198
RightToeBase 10.884563 -0.000000 -0.000000
246
root -1.144857 36.791923 5.790579 4.938514 8.766538 0.279480
Spine -3.829485 9.927471 -4.362794
Head 0.062786 -1.565049 2.134628
LeftShoulder -4.886988 -2.563050 -2.115501
LeftArm -5.658862 -10.570665 -67.040478
LeftForeArm -70.868343 -0.000000 82.100081
LeftHand 4.130349 -0.000000 -19.405570
LeftHandThumb1 -26.253704 0.000000 33.147579
RightShoulder -3.267264 -24.175989 -0.940400
RightArm 26.639521 -36.572124 50.882194
RightForeArm -147.615408 0.000000 38.763643
RightHand -0.502917 -0.000000 -3.007842
RightHandThumb1 -24.326973 -0.000000 -32.862282
LeftUpLeg -3.055958 7.523235 5.161295
LeftLeg 7.667507 -0.000000 -0.000000
LeftFoot -15.573012 0.365914 -20.795279
LeftToeBase 14.937522 -0.000000 -0.000000
RightUpLeg -2.606020 -12.258172 -1.483224
RightLeg 11.072072 -0.000000 -0.000000
RightFoot -19.563189 -7.945022 16.130009
RightToeBase 11.030337 -0.000000 -0.000000
247
root -1.150004 36.790909 5.791558 4.911528 8.954354 0.286156
Spine -3.789196 9.934695 -4.366777
Head 0.081092 -1.687616 2.120061
LeftShoulder -4.803860 -2.574978 -2.031459
LeftArm -5.844614 -10.718561 -67.009711
LeftForeArm -70.292605 -0.000000 82.147314
LeftHand 3.847736 -0.000000 -19.399766
LeftHandThumb1 -26.253704 0.000000 33.147579
RightShoulder -3.275316 -24.165309 -0.913391
RightArm 26.606664 -36.443844 50.886620
RightForeArm -147.531529 -0.000000 38.754480
RightHand -0.552067 0.000000 -2.889988
RightHandThumb1 -24.326973 -0.000000 -32.862282
LeftUpLeg -3.085522 7.398897 5.176615
LeftLeg 7.714986 -0.000000 -0.000000
LeftFoot -15.563905 0.323403 -20.769319
LeftToeBase 14.943977 -0.000000 -0.000000
RightUpLeg -2.557592 -12.334359 -1.477027
RightLeg 11.085610 -0.000000 -0.000000
RightFoot -19.607436 -8.000305 16.182525
RightToeBase 11.017627 -0.000000 -0.000000
248
root -1.151262 36.790942 5.790588 4.898346 9.098330 0.294603
Spine -3.763530 9.982849 -4.359205
Head 0.109108 -1.792237 2.082923
LeftShoulder -4.742059 -2.550951 -1.975265
LeftArm -5.943228 -10.713821 -67.000562
LeftForeArm -70.008961 -0.000000 82.215760
LeftHand 3.740440 -0.000000 -19.230627
LeftHandThumb1 -26.253704 0.000000 33.147579
RightShoulder -3.267029 -24.151749 -0.889843
RightArm 26.534348 -36.273983 50.924679
RightForeArm -147.450791 -0.000000 38.732117
RightHand -0.590486 -0.000000 -2.948440
RightHandThumb1 -24.326973 -0.000000 -32.862282
LeftUpLeg -3.120099 7.299534 5.176599
LeftLeg 7.759308 -0.000000 -0.000000
LeftFoot -15.552623 0.313519 -20.721513
LeftToeBase 14.923582 -0.000000 -0.000000
RightUpLeg -2.524501 -12.360641 -1.475772
RightLeg 11.082171 -0.000000 -0.000000
RightFoot -19.640032 -8.080954 16.233553
RightToeBase 11.008772 -0.000000 -0.000000
249
root -1.154401 36.790342 5.792639 4.858427 9.264815 0.299662
Spine -3.704990 9.988216 -4.344797
Head 0.128899 -1.878423 2.056373
LeftShoulder -4.693099 -2.536697 -1.924016
LeftArm -6.018729 -10.535743 -66.986736
LeftForeArm -69.651764 -0.000000 82.286860
LeftHand 3.735361 -0.000000 -19.283349
LeftHandThumb1 -26.253704 0.000000 33.147579
RightShoulder -3.228206 -24.128665 -0.888499
RightArm 26.468844 -36.127486 50.979704
RightForeArm -147.379992 0.000000 38.708048
RightHand -0.586988 -0.000000 -2.842452
RightHandThumb1 -24.326973 -0.000000 -32.862282
LeftUpLeg -3.128414 7.218449 5.191579
LeftLeg 7.802871 -0.000000 -0.000000
LeftFoot -15.537560 0.229723 -20.727375
LeftToeBase 14.936625 -0.000000 -0.000000
RightUpLeg -2.463145 -12.404333 -1.473677
RightLeg 11.091542 -0.000000 -0.000000
RightFoot -19.694441 -8.141526 16.315626
RightToeBase 11.029706 -0.000000 -0.000000
250
root -1.155478 36.790381 5.795165 4.794681 9.428061 0.315704
Spine -3.607215 9.989379 -4.333089
Head 0.135445 -1.963912 2.029812
LeftShoulder -4.648755 -2.484216 -1.886638
LeftArm -6.008728 -10.270549 -67.021099
LeftForeArm -69.279811 -0.000000 82.354930
LeftHand 3.504419 -0.000000 -19.627167
LeftHandThumb1 -26.253704 0.000000 33.147579
RightShoulder -3.192386 -24.087107 -0.861286
RightArm 26.402289 -35.988305 51.002768
RightForeArm -147.338214 0.000000 38.693493
RightHand -0.661966 -0.000000 -2.648326
RightHandThumb1 -24.326973 -0.000000 -32.862282
LeftUpLeg -3.106980 7.108585 5.197797
LeftLeg 7.842445 -0.000000 -0.000000
LeftFoot -15.517600 0.183001 -20.697420
LeftToeBase 14.945358 -0.000000 -0.000000
RightUpLeg -2.364658 -12.434237 -1.491817
RightLeg 11.081607 -0.000000 -0.000000
RightFoot -19.720582 -8.235117 16.342470
RightToeBase 10.967505 -0.000000 -0.000000
251
root -1.157063 36.789084 5.800193 4.680779 9.627925 0.316288
Spine -3.436238 9.962227 -4.285105
Head 0.113968 -2.050674 1.998702
LeftShoulder -4.582385 -2.460237 -1.841723
LeftArm -5.992697 -9.837252 -67.088212
LeftForeArm -69.009121 -0.000000 82.427279
LeftHand 3.501204 -0.000000 -19.824620
LeftHandThumb1 -26.253704 0.000000 33.147579
RightShoulder -3.171105 -24.015132 -0.827858
RightArm 26.371311 -35.893704 50.952613
RightForeArm -147.215849 -0.000000 38.682716
RightHand -0.628686 -0.000000 -2.735888
RightHandThumb1 -24.326973 -0.000000 -32.862282
LeftUpLeg -3.027997 6.986888 5.228435
LeftLeg 7.851648 -0.000000 -0.000000
LeftFoot -15.501810 0.109500 -20.699066
LeftToeBase 14.976974 -0.000000 -0.000000
RightUpLeg -2.203145 -12.516306 -1.501228
RightLeg 11.056288 -0.000000 -0.000000
RightFoot -19.751038 -8.321792 16.366607
RightToeBase 10.956894 -0.000000 -0.000000
252
root -1.157654 36.789518 5.797056 4.655443 9.798561 0.323043
Spine -3.373262 9.959699 -4.265841
Head 0.115848 -2.145748 1.999391
LeftShoulder -4.513472 -2.374669 -1.817594
LeftArm -5.921066 -9.288724 -67.176090
LeftForeArm -68.911635 -0.000000 82.540807
LeftHand 3.455193 -0.000000 -20.043731
LeftHandThumb1 -26.253704 0.000000 33.147579
RightShoulder -3.171689 -23.985834 -0.792072
RightArm 26.372318 -35.769596 50.931412
RightForeArm -147.114080 -0.000000 38.628559
RightHand -0.745184 -0.000000 -2.622141
RightHandThumb1 -24.326973 -0.000000 -32.862282
LeftUpLeg -3.056635 6.902712 5.231221
LeftLeg 7.888002 -0.000000 -0.000000
LeftFoot -15.479778 0.060457 -20.653938
LeftToeBase 14.990521 -0.000000 -0.000000
RightUpLeg -2.154470 -12.548234 -1.500016
RightLeg 11.044606 -0.000000 -0.000000
RightFoot -19.792733 -8.413360 16.435952
RightToeBase 10.974982 -0.000000 -0.000000
253
root -1.158631 36.789335 5.796640 4.607768 10.006974 0.325879
Spine -3.284557 9.884500 -4.234583
Head 0.118515 -2.211558 2.013136
LeftShoulder -4.474401 -2.254574 -1.784920
LeftArm -5.782611 -8.648946 -67.310142
LeftForeArm -68.852583 0.000000 82.647850
LeftHand 3.353766 0.000000 -20.290693
LeftHandThumb1 -26.253704 0.000000 33.147579
RightShoulder -3.142227 -23.983381 -0.752636
RightArm 26.384164 -35.614580 50.909912
RightForeArm -147.106261 -0.000000 38.581948
RightHand -0.714763 -0.000000 -2.556968
RightHandThumb1 -24.326973 -0.000000 -32.862282
LeftUpLeg -3.060644 6.794794 5.245182
LeftLeg 7.914045 -0.000000 -0.000000
LeftFoot -15.447840 -0.015573 -20.638611
LeftToeBase 14.984034 -0.000000 -0.000000
RightUpLeg -2.085232 -12.643990 -1.500195
RightLeg 11.062564 -0.000000 -0.000000
RightFoot -19.835572 -8.529763 16.497416
RightToeBase 10.869604 -0.000000 -0.000000
